<?xml version="1.0" encoding="utf-8"?>
<!DOCTYPE svg PUBLIC "-//W3C//DTD SVG 1.0//EN" "http://www.w3.org/TR/2001/REC-SVG-20010904/DTD/svg10.dtd">
<svg version="1.0" xmlns="http://www.w3.org/2000/svg" width="197px" height="159px" viewBox="0 0 197 159" preserveAspectRatio="xMidYMid meet">
 <g fill="#fefefe">
  <path d="M0 79.50 l0 -79.50 98.50 0 98.50 0 0 79.50 0 79.50 -98.50 0 -98.50 0 0 -79.50z m91.90 43 c-0.10 -11.55 -0.35 -19.10 -0.65 -19.60 -0.30 -0.45 -1.80 -2.20 -3.40 -3.80 -2.60 -2.75 -2.85 -3.15 -2.80 -5.15 0 -2.10 0.15 -2.30 2.95 -4.45 1.65 -1.25 3.10 -2.60 3.30 -3 0.50 -1.20 0.80 -31.80 0.35 -36.20 l-0.40 -3.95 -8 -3.10 c-4.40 -1.70 -11.50 -4.40 -15.75 -6 -4.25 -1.60 -10.45 -4 -13.75 -5.30 -3.30 -1.30 -6.05 -2.30 -6.15 -2.20 -0.10 0.10 -0.30 6.25 -0.40 13.70 -0.25 13.75 -0.10 15.55 1.60 15.55 0.40 0 1.60 0.45 2.70 1 1.10 0.55 2.15 1 2.35 1 0.20 0 0.40 -4.65 0.40 -10.35 l0 -10.40 1.65 -0.15 c1.05 -0.10 3.40 0.50 6.25 1.60 2.55 1 8.55 3.30 13.35 5.20 l8.75 3.40 0.15 17.30 0.10 17.25 -2.35 1.85 c-1.40 1.10 -2.85 1.80 -3.70 1.80 -1.70 0 -5.30 -1.35 -14.95 -5.50 -4 -1.75 -9.70 -4.20 -12.75 -5.50 -3 -1.30 -8.80 -3.75 -12.85 -5.50 l-7.40 -3.15 -0.10 -11.05 -0.15 -11 -3.15 -1.20 c-1.75 -0.65 -3.30 -1.05 -3.50 -0.85 -0.45 0.45 -0.60 50.95 -0.15 51.60 0.25 0.40 1.35 0.90 6.45 3 0.45 0.20 0.60 -2.25 0.60 -11.30 l0 -11.55 1.45 0 c0.80 0 4.60 1.35 8.40 3 l6.90 2.95 0.10 18.90 c0.05 10.40 0.10 20.30 0.10 22.05 l0.05 3.15 21.90 10.85 21.85 10.85 0.40 -3.50 c0.20 -1.90 0.30 -11.95 0.25 -22.25z m31.70 15.50 c11.60 -5.80 21.50 -10.70 21.90 -10.95 0.65 -0.35 0.80 -3.55 1 -22.45 0.15 -12.10 0.35 -22.10 0.50 -22.20 1.35 -1.05 13.15 -5.40 14.65 -5.40 l1.85 0 0 11.30 c0 10.55 0.05 11.30 0.90 10.95 0.45 -0.20 2.05 -0.80 3.50 -1.35 l2.60 -1.05 0 -24.90 c0 -13.65 0.10 -25.15 0.25 -25.55 0.15 -0.35 0.05 -1 -0.25 -1.40 -0.40 -0.60 -0.80 -0.60 -3.10 0.20 -1.45 0.55 -2.95 1.15 -3.25 1.45 -0.45 0.30 -0.65 3.45 -0.75 11.25 l-0.15 10.85 -9 3.90 c-4.95 2.15 -12.15 5.25 -16 6.85 -6.85 2.85 -15.50 6.55 -17.50 7.50 -4.65 2.15 -7.20 3 -9.05 3 l-2.20 0 0 -19.85 0 -19.90 7.15 -2.70 c3.90 -1.50 9.80 -3.80 13.15 -5.15 3.35 -1.30 6.85 -2.40 7.80 -2.40 l1.75 0 0.35 3.05 c0.15 1.70 0.30 6 0.30 9.50 0 3.55 0.05 6.45 0.15 6.45 0.10 0 1.50 -0.55 3.15 -1.20 l2.95 -1.20 0.15 -13.55 c0.05 -7.45 0.05 -13.55 -0.10 -13.55 -0.20 0 -22.25 8.55 -24.30 9.40 -0.70 0.30 -4.95 1.95 -9.50 3.60 -4.55 1.70 -8.75 3.40 -9.35 3.80 l-1.15 0.70 0 27.25 c0 15 0.20 27.25 0.40 27.25 0.25 0 5.10 -2.05 10.90 -4.55 20.80 -9.05 23.05 -9.95 24.55 -9.95 1.50 0 1.50 0 1.80 3.40 0.20 1.85 0.35 9.90 0.35 17.95 l0 14.60 -5.45 2.75 c-3.05 1.50 -5.90 3 -6.40 3.25 -5.20 2.90 -15.65 7.55 -17 7.55 l-1.65 0 0 -11.25 0 -11.25 -2.60 1.05 c-1.45 0.55 -3.15 1.35 -3.75 1.75 l-1.15 0.70 0 15.50 c0 8.55 0.10 15.50 0.20 15.50 0.10 0 9.75 -4.75 21.40 -10.50z m-109.20 -71.35 l-0.15 -26.35 -3.65 -1.35 -3.60 -1.35 0.10 26.30 0.15 26.35 3.25 1.35 c1.80 0.70 3.40 1.35 3.65 1.35 0.20 0.05 0.30 -11.80 0.25 -26.30z m170 24.55 l2.60 -1.15 0 -26.25 0 -26.25 -2.60 1.05 c-1.45 0.55 -3.15 1.20 -3.75 1.45 l-1.15 0.45 0 26.25 0 26.30 1.15 -0.35 c0.60 -0.20 2.30 -0.85 3.75 -1.50z"/>
  <path d="M67.80 130 c-7.15 -3.55 -13.20 -6.80 -13.40 -7.20 -0.25 -0.40 -0.35 -8.55 -0.30 -18.15 l0.15 -17.40 1.50 -0.15 c1.45 -0.15 3.20 0.50 16.20 6.10 3.75 1.60 4.65 2.25 8.35 6.15 l4.15 4.40 0.05 16.40 0 16.35 -1.85 0 c-1.40 -0.05 -5.35 -1.75 -14.85 -6.50z"/>
 </g>
 <g fill="#676767">
  <path d="M69.15 139.55 c-12.45 -6.20 -22.80 -11.50 -23 -11.70 -0.20 -0.25 -0.40 -10.20 -0.40 -22.15 l0 -21.75 -6.75 -2.90 -6.75 -2.90 -0.15 11.90 c-0.05 6.60 -0.30 11.95 -0.50 11.95 -0.75 0 -9.35 -3.75 -9.70 -4.25 -0.50 -0.70 -0.45 -55.65 0 -55.95 0.25 -0.15 2.55 0.60 5.15 1.65 l4.70 1.90 0.15 11 0.10 11 7.40 3.15 c4.05 1.75 9.85 4.20 12.85 5.50 3.05 1.30 8.75 3.75 12.75 5.50 4 1.70 8.65 3.65 10.30 4.30 l3.10 1.15 2.30 -1.80 2.30 -1.80 -0.10 -15.75 -0.15 -15.80 -8.75 -3.40 c-4.80 -1.90 -10.75 -4.20 -13.20 -5.15 -2.45 -0.95 -4.65 -1.60 -4.90 -1.45 -0.30 0.20 -0.40 4.75 -0.25 11 0.15 8.80 0.05 10.70 -0.50 10.70 -0.35 0 -2.15 -0.65 -4 -1.50 -1.80 -0.80 -3.60 -1.50 -3.95 -1.50 -1.60 0 -1.80 -1.95 -1.60 -17.50 0.10 -8.50 0.30 -15.60 0.50 -15.75 0.15 -0.15 3.40 0.95 7.20 2.45 3.85 1.50 10.90 4.20 15.70 6.05 19.80 7.55 23.30 8.90 23.90 9.35 0.45 0.40 0.55 5.05 0.45 21.35 -0.10 11.45 -0.35 21.15 -0.55 21.55 -0.20 0.40 -1.65 1.75 -3.30 3 -2.90 2.20 -3.60 3.55 -2.35 4.35 0.30 0.20 1.90 1.80 3.45 3.50 l2.85 3.15 0 23.75 c0 13.10 -0.10 24.10 -0.30 24.50 -0.15 0.40 -0.50 0.70 -0.85 0.70 -0.30 -0.05 -10.70 -5.15 -23.15 -11.40z m13.85 -19.40 l-0.05 -14.90 -4.15 -4.40 c-3.70 -3.90 -4.60 -4.55 -8.35 -6.15 -11.70 -5 -14.40 -6.10 -14.60 -5.85 -0.45 0.40 -0.35 31.90 0.05 32.55 0.40 0.60 25.85 13.55 26.75 13.60 0.20 0 0.35 -6.70 0.35 -14.85z"/>
  <path d="M100.80 150.20 c-0.15 -0.40 -0.30 -8.25 -0.30 -17.45 0 -12.90 0.15 -16.75 0.65 -17.15 0.70 -0.60 8.80 -4.10 9.45 -4.10 0.20 0 0.40 5.30 0.40 11.75 0 6.45 0.05 11.75 0.15 11.75 0.20 0 14.20 -6.80 15.50 -7.55 0.50 -0.25 3.35 -1.70 6.30 -3.20 l5.40 -2.70 -0.05 -16.25 c0 -8.90 -0.15 -16.35 -0.35 -16.50 -0.15 -0.15 -4.40 1.55 -9.50 3.75 -26.30 11.40 -27 11.70 -27.50 10.90 -0.25 -0.40 -0.45 -12.85 -0.45 -29.30 l0 -28.65 1.15 -0.70 c0.60 -0.40 4.80 -2.10 9.35 -3.80 4.55 -1.70 9.25 -3.50 10.50 -4 3.30 -1.35 24.05 -9.35 25.30 -9.70 0.85 -0.25 1.10 -0.10 1.25 0.80 0.10 0.65 0.10 7.65 -0.05 15.60 l-0.25 14.45 -4.25 1.65 c-2.35 0.90 -4.50 1.65 -4.75 1.70 -0.35 0 -0.50 -3.45 -0.50 -9.70 0 -5.35 -0.15 -9.85 -0.35 -10.05 -0.15 -0.20 -3.10 0.75 -6.50 2.15 -3.40 1.35 -9.35 3.65 -13.25 5.15 l-7.15 2.70 0 18.40 c0 15.25 0.10 18.35 0.70 18.35 0.60 0 4.15 -1.40 7.55 -3 2 -0.95 10.65 -4.65 17.50 -7.50 3.85 -1.60 11.05 -4.70 16 -6.85 l9 -3.90 0.15 -10.85 c0.10 -7.80 0.30 -10.90 0.75 -11.25 0.30 -0.25 1.75 -0.85 3.10 -1.35 1.40 -0.50 3.20 -1.25 4.10 -1.70 0.90 -0.45 1.75 -0.65 1.95 -0.45 0.30 0.30 0.35 56.40 0.05 56.65 -0.25 0.25 -9.10 3.70 -9.45 3.70 -0.20 0 -0.40 -5.30 -0.40 -11.75 0 -6.45 -0.15 -11.75 -0.35 -11.75 -0.80 -0.05 -12.90 5.25 -13.30 5.75 -0.20 0.25 -0.35 10.15 -0.30 21.90 0.05 21.25 -0.10 22.85 -1.60 22.85 -0.25 0 -10.10 4.80 -21.90 10.70 -11.75 5.90 -21.85 10.85 -22.40 11 -0.70 0.25 -1.15 0.05 -1.35 -0.50z"/>
 </g>
 <g fill="#2784c1">
  <path d="M12.75 94.70 c-1.35 -0.65 -3.55 -1.60 -4.85 -2.15 l-2.40 -1 0 -28.35 c0 -26.75 0.05 -28.30 0.90 -28.05 0.75 0.25 4.85 1.85 8.50 3.35 l1.10 0.50 0 28.20 c0 15.55 -0.15 28.35 -0.35 28.45 -0.25 0.15 -1.50 -0.30 -2.90 -0.95z"/>
  <path d="M178 67.25 l0 -28.25 1.15 -0.45 c0.60 -0.25 2.80 -1.15 4.85 -2 2.05 -0.85 3.90 -1.55 4.15 -1.55 0.20 0 0.30 12.75 0.25 28.35 l-0.15 28.35 -4.45 1.90 c-2.50 1.05 -4.80 1.90 -5.15 1.90 -0.55 0 -0.65 -5.35 -0.65 -28.25z"/>
 </g>
</svg>